<?xml version="1.0" standalone="no"?>
<!DOCTYPE svg PUBLIC "-//W3C//DTD SVG 20010904//EN"
 "http://www.w3.org/TR/2001/REC-SVG-20010904/DTD/svg10.dtd">
<svg version="1.0" xmlns="http://www.w3.org/2000/svg"
 width="450.000000pt" height="450.000000pt" viewBox="0 0 450.000000 450.000000"
 preserveAspectRatio="xMidYMid meet">

<g transform="translate(0.000000,450.000000) scale(0.100000,-0.100000)"
fill="#000000" stroke="none">
<path d="M1330 3445 c-7 -9 -13 -32 -14 -52 l-1 -37 115 -33 c180 -51 166 -50
189 -5 19 37 19 41 3 55 -71 62 -261 109 -292 72z"/>
<path d="M1502 3238 c-16 -16 -15 -86 1 -117 19 -37 43 -49 63 -30 14 15 14
24 2 85 -10 56 -17 70 -33 72 -11 1 -26 -3 -33 -10z"/>
<path d="M1601 3184 c0 -11 3 -14 6 -6 3 7 2 16 -1 19 -3 4 -6 -2 -5 -13z"/>
<path d="M1612 3120 c0 -14 2 -19 5 -12 2 6 2 18 0 25 -3 6 -5 1 -5 -13z"/>
<path d="M2417 3093 c-4 -3 -7 -16 -7 -29 l0 -22 -62 20 c-35 10 -90 20 -124
21 -73 2 -98 -13 -92 -55 4 -23 -3 -37 -33 -67 -21 -20 -41 -50 -44 -64 -9
-34 10 -81 40 -101 22 -14 24 -14 39 9 13 20 25 25 59 25 24 0 47 4 53 10 7 7
23 3 49 -11 33 -16 55 -20 119 -17 l80 3 8 -30 c11 -45 62 -89 102 -91 29 -1
35 4 45 31 6 17 11 52 11 77 0 38 -5 52 -28 75 -16 16 -37 52 -47 82 -23 70
-89 141 -132 141 -16 0 -33 -3 -36 -7z"/>
<path d="M1328 3074 c-42 -18 -59 -51 -35 -69 12 -8 33 -8 84 0 60 10 68 14
71 35 7 47 -49 63 -120 34z"/>
<path d="M1622 3055 c0 -16 2 -22 5 -12 2 9 2 23 0 30 -3 6 -5 -1 -5 -18z"/>
<path d="M1632 2995 c0 -16 2 -22 5 -12 2 9 2 23 0 30 -3 6 -5 -1 -5 -18z"/>
<path d="M2618 2994 c-5 -4 -8 -23 -8 -43 1 -30 2 -33 11 -18 11 19 8 73 -3
61z"/>
<path d="M1642 2920 c0 -14 2 -19 5 -12 2 6 2 18 0 25 -3 6 -5 1 -5 -13z"/>
<path d="M2658 2929 c-28 -16 -21 -30 7 -17 14 6 25 15 25 20 0 11 -11 10 -32
-3z"/>
<path d="M1405 2896 c-39 -17 -59 -41 -51 -62 5 -14 16 -16 57 -11 60 7 96 -4
126 -40 13 -16 27 -24 37 -20 28 11 18 55 -21 103 -33 39 -42 44 -78 44 -22
-1 -54 -7 -70 -14z"/>
<path d="M1652 2855 c0 -16 2 -22 5 -12 2 9 2 23 0 30 -3 6 -5 -1 -5 -18z"/>
<path d="M1662 2795 c0 -16 2 -22 5 -12 2 9 2 23 0 30 -3 6 -5 -1 -5 -18z"/>
<path d="M2157 2753 c-13 -13 -7 -18 23 -18 17 0 30 5 30 13 0 12 -42 17 -53
5z"/>
<path d="M1223 2670 c0 -41 2 -58 4 -37 2 20 2 54 0 75 -2 20 -4 3 -4 -38z"/>
<path d="M1672 2720 c0 -14 2 -19 5 -12 2 6 2 18 0 25 -3 6 -5 1 -5 -13z"/>
<path d="M2370 2731 c0 -5 14 -17 32 -25 37 -19 58 -7 33 18 -17 17 -65 22
-65 7z"/>
<path d="M1253 2694 c-10 -28 5 -152 25 -196 10 -24 29 -52 42 -63 l22 -20 17
22 c23 28 34 123 21 173 -18 67 -110 128 -127 84z"/>
<path d="M1506 2651 c-42 -43 -47 -51 -37 -70 17 -31 52 -26 88 12 44 46 57
75 42 93 -20 24 -43 16 -93 -35z"/>
<path d="M2177 2684 c3 -9 1 -19 -5 -23 -6 -4 -7 -12 -3 -20 13 -21 31 -3 31
30 0 19 -5 29 -15 29 -9 0 -12 -6 -8 -16z"/>
<path d="M2375 2680 c-3 -5 -1 -10 4 -10 8 0 7 -7 -1 -20 -7 -10 -9 -22 -6
-26 12 -12 38 5 38 24 0 24 -25 48 -35 32z"/>
<path d="M1682 2655 c0 -16 2 -22 5 -12 2 9 2 23 0 30 -3 6 -5 -1 -5 -18z"/>
<path d="M2571 2644 c-27 -35 -27 -49 1 -30 12 9 22 25 23 36 2 26 1 25 -24
-6z"/>
<path d="M2244 2606 c-6 -25 1 -46 14 -46 4 0 8 16 9 35 2 40 -14 47 -23 11z"/>
<path d="M1692 2595 c0 -16 2 -22 5 -12 2 9 2 23 0 30 -3 6 -5 -1 -5 -18z"/>
<path d="M1233 2525 c0 -22 2 -30 4 -17 2 12 2 30 0 40 -3 9 -5 -1 -4 -23z"/>
<path d="M1702 2530 c0 -14 2 -19 5 -12 2 6 2 18 0 25 -3 6 -5 1 -5 -13z"/>
<path d="M2197 2493 c-13 -13 -7 -50 11 -66 37 -33 122 -10 122 32 0 18 -19
32 -43 30 -7 0 -2 -4 11 -9 12 -5 22 -14 22 -21 0 -6 -7 -8 -17 -5 -9 4 -37
10 -61 13 -31 4 -42 10 -38 19 6 15 3 18 -7 7z"/>
<path d="M2233 2493 c9 -2 23 -2 30 0 6 3 -1 5 -18 5 -16 0 -22 -2 -12 -5z"/>
<path d="M1660 2459 c-30 -9 -79 -20 -107 -24 -57 -8 -68 -21 -28 -31 50 -13
170 23 190 57 11 17 3 17 -55 -2z"/>
<path d="M1950 2375 c25 -13 50 -24 55 -24 6 0 -10 11 -35 24 -25 13 -49 24
-55 24 -5 0 10 -11 35 -24z"/>
<path d="M1681 2342 c-6 -12 -6 -33 -1 -58 21 -90 8 -160 -37 -189 -12 -9 -23
-22 -23 -30 0 -16 30 -35 55 -35 22 0 135 117 135 139 0 39 -31 118 -60 154
-35 41 -54 46 -69 19z"/>
<path d="M2410 2299 c-36 -10 -86 -19 -112 -19 -43 0 -48 -3 -54 -26 -8 -33
18 -53 71 -53 68 0 186 16 197 27 6 6 7 27 3 51 -8 47 -11 48 -105 20z"/>
<path d="M1359 2295 c5 -11 17 -29 26 -40 l16 -20 -10 20 c-5 11 -17 29 -26
40 l-16 20 10 -20z"/>
<path d="M1502 2298 c-31 -31 0 -158 38 -158 37 1 41 14 30 85 -6 38 -13 72
-16 77 -8 12 -38 10 -52 -4z"/>
<path d="M1902 2220 c-24 -15 -32 -27 -30 -43 3 -21 7 -22 73 -19 83 4 105 18
87 57 -10 21 -18 25 -54 25 -25 0 -57 -8 -76 -20z"/>
<path d="M2623 2193 c15 -2 37 -2 50 0 12 2 0 4 -28 4 -27 0 -38 -2 -22 -4z"/>
<path d="M2460 2144 c0 -10 21 -40 47 -66 42 -43 47 -53 48 -95 0 -50 10 -61
39 -40 23 17 40 121 24 146 -18 30 -75 63 -117 68 -35 5 -41 3 -41 -13z"/>
<path d="M2775 2130 c10 -11 20 -20 23 -20 3 0 -3 9 -13 20 -10 11 -20 20 -23
20 -3 0 3 -9 13 -20z"/>
<path d="M2270 2089 c-26 -47 23 -159 62 -144 24 9 26 22 14 98 -10 64 -11 67
-38 67 -17 0 -31 -7 -38 -21z"/>
<path d="M2850 2065 c19 -19 36 -35 39 -35 3 0 -10 16 -29 35 -19 19 -36 35
-39 35 -3 0 10 -16 29 -35z"/>
<path d="M1529 2035 c5 -11 17 -29 26 -40 l16 -20 -10 20 c-5 11 -17 29 -26
40 l-16 20 10 -20z"/>
<path d="M1755 2009 c-4 -6 -13 -40 -21 -77 -11 -52 -11 -68 -1 -74 25 -16 54
-8 68 19 19 35 19 121 -1 133 -20 13 -37 12 -45 -1z"/>
<path d="M2900 2007 c0 -2 15 -16 33 -33 l32 -29 -29 33 c-28 30 -36 37 -36
29z"/>
<path d="M2096 1988 c-64 -14 -94 -51 -62 -77 10 -9 31 -8 85 1 71 12 72 12
69 42 -4 36 -33 47 -92 34z"/>
<path d="M2975 1920 c10 -11 20 -20 23 -20 3 0 -3 9 -13 20 -10 11 -20 20 -23
20 -3 0 3 -9 13 -20z"/>
<path d="M1853 1878 c-16 -24 -45 -70 -63 -103 -19 -33 -37 -62 -42 -63 -4 -2
-6 -7 -3 -12 3 -4 -9 -39 -26 -77 -38 -83 -79 -201 -78 -222 0 -9 8 0 18 20
l17 37 28 -25 c18 -15 38 -23 55 -21 40 5 38 37 -5 93 l-37 49 89 177 c86 174
105 234 47 147z"/>
<path d="M3000 1886 c0 -2 8 -10 18 -17 15 -13 16 -12 3 4 -13 16 -21 21 -21
13z"/>
<path d="M2835 1873 c-34 -9 -65 -35 -65 -54 0 -27 18 -32 97 -22 62 7 68 10
71 32 6 41 -38 60 -103 44z"/>
<path d="M3050 1816 c0 -2 8 -10 18 -17 15 -13 16 -12 3 4 -13 16 -21 21 -21
13z"/>
<path d="M2370 1788 c-31 -16 -45 -29 -45 -43 0 -18 8 -21 78 -25 72 -5 81 -7
102 -34 15 -19 29 -27 39 -23 27 11 18 52 -21 101 -32 39 -43 46 -73 46 -20 0
-56 -10 -80 -22z"/>
<path d="M2610 1703 c1 -60 6 -137 13 -172 l12 -65 -134 -89 c-73 -49 -156
-108 -185 -131 -28 -23 -59 -45 -69 -49 -30 -11 -16 -42 20 -45 38 -4 66 -43
93 -131 17 -57 17 -59 -2 -90 -23 -36 -11 -40 36 -12 17 10 58 26 91 36 86 24
268 100 353 147 81 44 232 153 232 167 0 5 -37 -16 -82 -46 -100 -66 -252
-144 -416 -212 -67 -28 -123 -51 -125 -51 -1 0 -1 17 1 38 7 68 -46 155 -115
190 l-34 18 83 51 c172 106 366 257 294 230 -9 -4 -16 -1 -16 6 0 7 -7 80 -15
162 -8 83 -15 151 -15 153 0 1 -4 2 -10 2 -6 0 -10 -42 -10 -107z"/>
<path d="M1898 1776 c-6 -14 -8 -31 -5 -38 24 -51 58 -94 79 -102 34 -12 112
1 140 23 19 16 20 21 9 35 -8 10 -29 16 -53 16 -55 0 -104 23 -123 59 -19 37
-32 39 -47 7z"/>
<path d="M1700 1770 c6 -11 13 -20 16 -20 2 0 0 9 -6 20 -6 11 -13 20 -16 20
-2 0 0 -9 6 -20z"/>
<path d="M2764 1685 c-4 -8 -3 -30 0 -48 4 -17 9 -62 13 -98 5 -63 4 -67 -26
-101 -17 -20 -31 -39 -31 -42 0 -11 52 -27 70 -21 29 9 110 122 110 153 0 15
-12 51 -26 80 -37 75 -96 116 -110 77z"/>
<path d="M3150 1670 c6 -11 13 -20 16 -20 2 0 0 9 -6 20 -6 11 -13 20 -16 20
-2 0 0 -9 6 -20z"/>
<path d="M3093 1634 c-17 -45 18 -264 42 -264 40 0 87 95 83 165 -2 25 -6 45
-10 45 -5 0 -8 5 -8 11 0 7 -8 18 -17 26 -10 8 -12 11 -4 7 9 -5 12 -3 7 5 -4
6 -11 9 -16 6 -5 -3 -11 -1 -15 5 -10 16 -55 12 -62 -6z"/>
<path d="M2342 1537 c-50 -50 -51 -54 -36 -75 21 -31 38 -28 84 14 44 40 59
76 40 99 -20 24 -32 18 -88 -38z"/>
<path d="M2030 1540 c-23 -42 16 -150 55 -150 29 0 35 25 22 96 -12 63 -15 69
-39 72 -19 2 -30 -3 -38 -18z"/>
<path d="M2953 1430 c-29 -27 -53 -53 -53 -58 0 -12 34 -42 48 -42 19 0 79 58
92 90 10 24 10 33 0 45 -19 23 -31 18 -87 -35z"/>
<path d="M1641 1364 c0 -11 3 -14 6 -6 3 7 2 16 -1 19 -3 4 -6 -2 -5 -13z"/>
<path d="M1633 1300 c0 -25 2 -35 4 -22 2 12 2 32 0 45 -2 12 -4 2 -4 -23z"/>
<path d="M2716 1314 c-37 -36 -3 -149 44 -149 25 0 25 1 22 69 -4 91 -27 119
-66 80z"/>
<path d="M2091 1301 c-25 -25 -17 -59 17 -72 48 -18 172 41 158 76 -9 24 -150
21 -175 -4z"/>
<path d="M1825 1276 c-16 -7 -38 -22 -48 -33 -27 -30 -1 -48 59 -39 53 7 107
-12 124 -43 19 -36 50 -21 50 25 0 9 -17 35 -37 60 -33 39 -42 44 -78 44 -22
-1 -53 -7 -70 -14z"/>
<path d="M2440 1236 c-5 -5 -10 -21 -10 -34 0 -40 101 -68 151 -42 26 14 24
48 -3 59 -46 18 -127 28 -138 17z"/>
<path d="M2098 1153 c6 -2 18 -2 25 0 6 3 1 5 -13 5 -14 0 -19 -2 -12 -5z"/>
<path d="M2029 1123 c-13 -16 -12 -17 4 -4 16 13 21 21 13 21 -2 0 -10 -8 -17
-17z"/>
<path d="M1978 1103 c7 -3 16 -2 19 1 4 3 -2 6 -13 5 -11 0 -14 -3 -6 -6z"/>
<path d="M1975 1062 c-6 -5 -39 -14 -75 -20 -74 -13 -175 -59 -209 -96 -22
-23 -25 -24 -46 -10 -20 13 -23 13 -29 -3 -5 -13 3 -26 30 -49 35 -30 36 -33
25 -64 -6 -18 -11 -49 -11 -69 0 -37 27 -103 45 -107 9 -3 190 231 201 260 12
31 -95 35 -151 6 -49 -25 -56 -19 -13 13 76 57 185 87 222 61 18 -12 23 -11
41 6 39 37 9 106 -30 72z"/>
<path d="M2270 828 l-34 -40 26 -22 c22 -17 29 -33 34 -77 7 -59 -9 -155 -29
-184 -11 -14 -12 -6 -9 47 2 48 -1 71 -15 97 -11 18 -23 33 -27 33 -12 -1
-206 -265 -200 -273 2 -4 24 -11 48 -14 43 -7 99 11 147 46 14 10 24 7 57 -19
35 -28 41 -30 52 -17 10 13 10 19 -4 34 -15 17 -15 21 6 67 21 49 25 104 19
259 -3 51 -18 106 -30 104 -3 0 -22 -19 -41 -41z"/>
</g>
</svg>
